<svg width="145" height="117" viewBox="0 0 145 117" fill="none" xmlns="http://www.w3.org/2000/svg">
<g clip-path="url(#clip0_1_370)">
<path d="M143.434 17.2585V100.429C143.434 108.978 136.493 115.919 127.945 115.919H16.7327C8.18408 115.919 1.24327 108.978 1.24327 100.429V17.2585C1.24327 8.70986 8.18408 1.76904 16.7327 1.76904L127.945 1.76904C136.493 1.76904 143.434 8.70986 143.434 17.2585Z" fill="#E1E320" stroke="#231F20" stroke-width="3" stroke-miterlimit="10"/>
<path d="M127.938 8.38574L16.7328 8.38574C11.8324 8.38574 7.85989 12.3583 7.85989 17.2586L7.85989 100.429C7.85989 105.33 11.8324 109.302 16.7328 109.302H127.938C132.838 109.302 136.811 105.33 136.811 100.429V17.2586C136.811 12.3583 132.838 8.38574 127.938 8.38574Z" fill="#E1E320" stroke="#231F20" stroke-width="3" stroke-miterlimit="10"/>
<path d="M18.334 103.01L27.1341 59.4857L18.334 15.9617L48.3006 59.4857L18.334 103.01Z" fill="#231F20"/>
<path d="M38.9447 103.01L47.7448 59.4857L38.9447 15.9617L68.9113 59.4857L38.9447 103.01Z" fill="#231F20"/>
<path d="M59.5554 103.01L68.3555 59.4857L59.5554 15.9617L89.5286 59.4857L59.5554 103.01Z" fill="#231F20"/>
<path d="M80.1728 103.01L88.9662 59.4857L80.1728 15.9617L110.139 59.4857L80.1728 103.01Z" fill="#231F20"/>
<path d="M100.783 103.01L109.584 59.4857L100.783 15.9617L130.75 59.4857L100.783 103.01Z" fill="#231F20"/>
</g>
<defs>
<clipPath id="clip0_1_370">
<rect width="144.176" height="116.135" fill="white" transform="translate(0.250793 0.776611)"/>
</clipPath>
</defs>
</svg>
