<svg width="185" height="185" viewBox="0 0 185 185" fill="none" xmlns="http://www.w3.org/2000/svg">
<g clip-path="url(#clip0_1_370)">
<path d="M71.4719 172.521L12.6613 113.711C6.61652 107.666 6.61651 97.8501 12.6613 91.8053L91.3 13.1666C97.3448 7.12178 107.161 7.12179 113.205 13.1666L172.016 71.9772C178.061 78.022 178.061 87.8378 172.016 93.8826L93.3773 172.521C87.3325 178.566 77.5167 178.566 71.4719 172.521Z" fill="#E1E320" stroke="#231F20" stroke-width="3" stroke-miterlimit="10"/>
<path d="M88.7034 167.838L167.337 89.204C170.802 85.7389 170.802 80.1209 167.337 76.6559L108.527 17.8453C105.062 14.3802 99.4437 14.3802 95.9787 17.8453L17.3447 96.4793C13.8796 99.9443 13.8796 105.562 17.3447 109.027L76.1552 167.838C79.6203 171.303 85.2383 171.303 88.7034 167.838Z" fill="#E1E320" stroke="#231F20" stroke-width="3" stroke-miterlimit="10"/>
<path d="M99.2958 23.4269L123.849 60.4256L160.848 84.9791L108.882 75.3926L99.2958 23.4269Z" fill="#231F20"/>
<path d="M84.7218 38.0008L109.275 74.9996L146.274 99.5531L94.3084 89.9666L84.7218 38.0008Z" fill="#231F20"/>
<path d="M70.1479 52.5749L94.7014 89.5737L131.7 114.127L79.7297 104.545L70.1479 52.5749Z" fill="#231F20"/>
<path d="M55.5692 67.1535L80.1274 104.148L117.121 128.706L65.1557 119.119L55.5692 67.1535Z" fill="#231F20"/>
<path d="M40.9952 81.7275L65.5487 118.726L102.547 143.28L50.5818 133.693L40.9952 81.7275Z" fill="#231F20"/>
</g>
<defs>
<clipPath id="clip0_1_370">
<rect width="144.176" height="116.135" fill="white" transform="translate(184.372 82.9299) rotate(135)"/>
</clipPath>
</defs>
</svg>
