<svg width="249" height="149" viewBox="0 0 249 149" fill="none" xmlns="http://www.w3.org/2000/svg">
<g clip-path="url(#clip0_1_353)">
<path d="M221.854 1.65333L8.07117 41.3857C4.0903 42.1256 1.46294 45.9525 2.2028 49.9334L19.2054 141.417C19.9453 145.398 23.7722 148.026 27.7531 147.286L241.536 107.553C245.517 106.814 248.144 102.987 247.404 99.0057L230.402 7.52171C229.662 3.54083 225.835 0.913474 221.854 1.65333Z" fill="#FFCE07"/>
<path d="M165.164 76.3997C169.823 75.5339 172.047 73.9919 171.476 70.9219C170.906 67.8519 168.276 67.212 163.617 68.0778C158.959 68.9436 156.744 70.5354 157.305 73.5556C157.866 76.5759 160.505 77.2656 165.164 76.3997Z" fill="black"/>
<path d="M221.144 89.6299C231.403 87.7232 234.685 84.1391 233.14 76.3792C232.164 71.1273 229.666 68.7206 221.334 69.9601L221.002 68.1763C223.153 67.8795 224.548 67.6718 225.938 67.4135C229.456 66.7597 231.864 64.8269 230.25 59.9985L219.547 61.9877C220.774 66.3733 220.023 67.8475 218.633 68.1058L217.198 68.3726C206.939 70.2792 203.756 73.8448 205.192 81.5734C206.307 87.568 209.904 89.0023 215.41 88.2878L215.76 90.1712C214.868 90.3369 214.256 90.3477 213.364 90.5134C211.151 90.8971 209.551 91.9826 208.64 93.4944L207.802 88.9851C205.968 89.3259 205.454 88.4987 205.067 86.4163L203.953 80.4217C202.787 73.8705 200.487 71.4268 194.293 72.5779C188.1 73.729 186.001 76.222 186.636 83.7946L184.902 84.1168L183.235 75.148L173.275 76.9991L174.979 86.1671C177.21 85.7523 177.829 86.6114 178.391 89.6355L178.705 91.3198C179.077 93.3218 178.872 94.2904 176.829 94.7375C174.803 95.0466 174.219 94.2246 173.847 92.2226L171.093 77.4047L158.457 79.7531L159.708 86.4826C156.991 82.0493 152.198 80.4016 144.687 81.7974C136.373 83.3427 132.497 87.0768 132.144 93.2132C130.895 89.2634 128.069 87.5631 120.789 88.6467L120.458 86.8629C122.608 86.5662 124.003 86.3584 125.393 86.1001C128.911 85.4463 131.32 83.5136 129.706 78.6851L119.003 80.6743C120.23 85.0599 119.478 86.5342 118.088 86.7924L116.653 87.0592C106.394 88.9658 103.211 92.5314 104.648 100.26C105.762 106.255 109.359 107.689 114.865 106.974L115.215 108.858C114.324 109.024 113.712 109.034 112.82 109.2C108.65 109.924 106.626 113.119 107.354 117.035C108.229 121.744 111.535 122.975 115.845 122.174L136.114 118.407L134.428 109.338L118.026 112.387C116.59 112.654 115.76 112.344 115.558 111.257C115.328 110.017 115.842 109.205 120.6 108.32C128.474 106.857 132.232 104.404 132.86 99.8323C134.858 107.983 140.08 111.618 149.891 109.795C157.401 108.399 161.236 104.91 162.158 99.6661L163.476 106.759L193.158 101.243L191.445 92.0251C189.362 92.4121 188.255 91.6952 187.868 89.6128L187.518 87.7294C187.011 85.004 188.738 83.8118 190.966 83.3977C193.592 82.9097 194.721 83.468 195.311 86.6414L195.597 88.1764C195.984 90.2588 195.655 91.2425 193.623 91.6203L195.336 100.838L207.93 98.4973C208.849 103.079 212.121 104.28 216.386 103.488L236.655 99.7207L234.969 90.6523L218.567 93.7008C217.131 93.9676 216.301 93.6585 216.099 92.5713C215.869 91.3311 216.383 90.5187 221.141 89.6344L221.144 89.6299ZM218.446 75.1105C221.221 74.5947 222.887 75.5681 223.448 78.5884C223.909 81.0651 222.786 83.0161 220.011 83.5319C217.236 84.0477 215.487 82.6302 215.027 80.1536C214.465 77.1295 215.671 75.6263 218.446 75.1105ZM119.467 102.222C116.692 102.738 114.943 101.321 114.483 98.844C113.921 95.8199 115.127 94.3167 117.902 93.8009C120.677 93.2851 122.343 94.2586 122.904 97.2788C123.365 99.7555 122.242 101.707 119.467 102.222ZM148.315 101.32C144.35 102.057 142.708 100.105 142.035 96.4875C141.363 92.8701 142.29 90.9553 146.252 90.2189C150.214 89.4826 151.767 90.9364 152.44 94.5538C153.112 98.1712 152.277 100.584 148.315 101.32ZM163.886 94.07C164.234 95.9456 164.074 96.9141 162.373 97.3964C162.407 95.9803 162.267 94.4579 161.966 92.8387C161.691 91.3611 161.319 90.0204 160.855 88.8198C162.555 88.6543 163.012 89.3692 163.389 91.3942L163.886 94.07Z" fill="black"/>
<path d="M14.4112 48.3658L16.4323 47.9901L16.1582 58.3508L21.7009 51.8213L24.388 51.3219L19.4757 57.0815L24.3302 64.2772L21.6431 64.7766L17.9004 58.9455L16.0971 60.9486L15.9769 65.8297L13.9558 66.2053L14.4112 48.3658ZM35.9333 51.2067C36.3387 51.784 36.6001 52.4969 36.7175 53.3453C36.8324 53.9202 36.8708 54.8638 36.8327 56.1763L27.6617 57.8807C27.664 59.1937 27.9354 60.1988 28.4759 60.896C29.0228 61.584 29.8842 61.8188 31.0603 61.6002C32.1585 61.3961 33.0414 60.8573 33.709 59.9839C34.0981 59.4764 34.3776 58.9209 34.5474 58.3172L36.6153 57.9329C36.5449 58.4214 36.3484 58.9897 36.0257 59.6379C35.7093 60.2769 35.3547 60.8182 34.9618 61.2618C34.3065 62.0282 33.5046 62.6124 32.5559 63.0143C32.0417 63.2388 31.4652 63.4104 30.8266 63.5291C29.2688 63.8186 27.9645 63.4769 26.9134 62.5039C25.8609 61.5231 25.3631 59.9718 25.42 57.8502C25.4749 55.7611 26.0634 53.9636 27.1856 52.4578C28.3078 50.952 29.7489 50.0355 31.5092 49.7083C32.3971 49.5433 33.2539 49.6016 34.0798 49.8832C34.9042 50.1571 35.5221 50.5982 35.9333 51.2067ZM34.7114 54.8422C34.6511 53.9106 34.4729 53.1904 34.1768 52.6813C33.6304 51.7354 32.6834 51.3877 31.336 51.6381C30.3702 51.8176 29.5514 52.3324 28.8794 53.1824C28.206 54.0247 27.8329 55.0086 27.7601 56.1341L34.7114 54.8422ZM49.2517 48.7314C49.6572 49.3087 49.9186 50.0216 50.036 50.87C50.1509 51.4449 50.1893 52.3886 50.1512 53.701L40.9801 55.4054C40.9824 56.7184 41.2538 57.7235 41.7944 58.4208C42.3412 59.1088 43.2027 59.3435 44.3788 59.1249C45.4769 58.9208 46.3598 58.382 47.0274 57.5086C47.4166 57.0012 47.6961 56.4456 47.8659 55.842L49.9338 55.4576C49.8634 55.9461 49.6669 56.5144 49.3442 57.1626C49.0278 57.8016 48.6732 58.3429 48.2802 58.7866C47.625 59.553 46.823 60.1371 45.8744 60.539C45.3601 60.7635 44.7837 60.9351 44.145 61.0538C42.5873 61.3433 41.2829 61.0016 40.2319 60.0286C39.1794 59.0478 38.6816 57.4965 38.7385 55.3749C38.7934 53.2858 39.3819 51.4883 40.5041 49.9825C41.6262 48.4767 43.0674 47.5602 44.8276 47.2331C45.7155 47.068 46.5724 47.1263 47.3983 47.408C48.2227 47.6818 48.8405 48.1229 49.2517 48.7314ZM48.0298 52.3669C47.9695 51.4353 47.7913 50.7151 47.4953 50.2061C46.9488 49.2601 46.0019 48.9124 44.6545 49.1628C43.6887 49.3423 42.8698 49.8571 42.1979 50.7071C41.5245 51.5494 41.1514 52.5333 41.0785 53.6588L48.0298 52.3669ZM61.4731 50.8232C61.4981 49.7872 61.3739 48.9239 61.1006 48.2334C60.5951 46.9012 59.618 46.3697 58.1694 46.6389C56.7129 46.9096 55.6955 47.8521 55.1173 49.4663C54.8103 50.3291 54.6398 51.3841 54.6056 52.6314C54.5826 53.6348 54.7081 54.4615 54.982 55.1116C55.4871 56.3553 56.464 56.8425 57.9127 56.5733C58.894 56.3909 59.7215 55.8141 60.3951 54.8429C61.0673 53.8638 61.4266 52.524 61.4731 50.8232ZM52.7648 46.1084L54.8093 45.7284L54.7672 47.4525C55.1989 46.7841 55.6701 46.2413 56.1808 45.824C56.9039 45.2062 57.7445 44.8082 58.7025 44.6302C60.12 44.3667 61.3079 44.71 62.266 45.66C63.2227 46.6022 63.6743 48.1217 63.6209 50.2186C63.5512 53.0517 62.7876 55.208 61.3302 56.6875C60.4085 57.6243 59.3479 58.2041 58.1484 58.4271C57.206 58.6022 56.4199 58.5348 55.7902 58.2248C55.4197 58.0519 55.0141 57.7123 54.5736 57.206L54.406 63.8484L52.3031 64.2392L52.7648 46.1084ZM72.9061 42.3651L75.0441 41.9677L74.7183 54.9124L72.5804 55.3097L72.9061 42.3651ZM73.0358 37.4701L75.1737 37.0728L75.1026 39.5516L72.9647 39.949L73.0358 37.4701ZM78.7534 37.6041L80.8797 37.2089L80.7812 40.841L82.7789 40.4697L82.736 42.2544L80.7382 42.6257L80.5152 51.1156C80.5028 51.5691 80.6427 51.8452 80.9351 51.944C81.099 52.0022 81.3717 51.9958 81.7534 51.9249C81.8546 51.9061 81.9637 51.8858 82.0805 51.8641C82.1959 51.8346 82.3339 51.7968 82.4946 51.7509L82.4524 53.475C82.2084 53.5928 81.953 53.6927 81.6862 53.7745C81.4272 53.8549 81.1458 53.9233 80.842 53.9797C79.8607 54.1621 79.199 54.0272 78.8572 53.5751C78.5216 53.1137 78.365 52.466 78.3872 51.6319L78.6119 43.0209L76.9179 43.3357L76.9609 41.551L78.6549 41.2362L78.7534 37.6041Z" fill="#231F20"/>
<path d="M15.547 71.8085L22.9225 111.493C24.1483 118.088 30.4905 122.446 37.0899 121.219L99.2212 109.672" stroke="#231F20" stroke-width="1.16805" stroke-miterlimit="10"/>
<path d="M84.5424 40.4084L200.154 18.9216C206.604 17.7228 212.725 21.5711 213.829 27.5121L218.589 53.1248" stroke="#231F20" stroke-width="1.16805" stroke-miterlimit="10"/>
<path d="M87.3073 108.79L100.002 109.527" stroke="#231F20" stroke-width="1.16805" stroke-miterlimit="10"/>
<path d="M88.42 114.776L100.002 109.527" stroke="#231F20" stroke-width="1.16805" stroke-miterlimit="10"/>
<path d="M219.401 40.8715L218.663 53.5663" stroke="#231F20" stroke-width="1.16805" stroke-miterlimit="10"/>
<path d="M213.414 41.9844L218.663 53.5664" stroke="#231F20" stroke-width="1.16805" stroke-miterlimit="10"/>
</g>
<defs>
<clipPath id="clip0_1_353">
<rect width="232.107" height="107.713" fill="white" transform="translate(0.863159 42.7253) rotate(-10.5285)"/>
</clipPath>
</defs>
</svg>
