<svg width="158" height="70" viewBox="0 0 158 70" fill="none" xmlns="http://www.w3.org/2000/svg">
<g clip-path="url(#clip0_1_255)">
<path d="M155.638 47.1028C154.998 46.6456 154.195 46.3588 153.216 46.2294C155.315 45.1403 156.067 42.7099 155.845 40.5922C155.634 38.5694 154.543 36.7838 152.925 35.8112C152.065 35.2937 151.176 35.0327 150.286 35.0327C149.705 35.0327 149.125 35.1449 148.56 35.367C147.476 35.794 146.538 36.5941 145.731 37.5472C145.522 37.599 145.313 37.6594 145.108 37.7413C144.346 38.0411 143.659 38.5241 143.037 39.115C142.813 39.3264 142.444 39.1776 142.434 38.8692L142.25 34.4117L140.471 34.7653C138.36 35.1858 136.589 35.2009 135.179 34.8171C134.905 34.7416 134.963 34.334 135.248 34.334H136.868L136.794 32.7123C136.773 32.2314 136.779 31.6793 136.857 31.1424C136.876 31.0065 137.001 30.9095 137.137 30.9202C138.972 31.0777 140.721 31.8368 140.739 31.8432L142.552 32.6455L143.184 29.0549C143.633 29.2058 143.913 29.3244 143.919 29.3287L145.731 30.1245L148.774 12.8529L147.545 12.4087C147.381 12.3483 145.869 11.8264 143.697 11.8264C141.194 11.8264 139.11 12.4906 137.39 13.5042L142.703 0.232962H120.316L121.505 2.74962H116.959L117.877 4.75303C114.904 5.04847 112.346 6.48903 110.381 8.97981C110.245 9.06391 110.112 9.15017 109.978 9.23859C109.404 9.24506 108.842 9.32916 108.296 9.48875L111.82 0.590945L91.2271 0.759153L91.3435 1.38023C90.0388 0.763466 88.6457 0.338632 87.1879 0.135919C82.7498 -0.483003 78.3569 1.04381 75.01 4.08235C72.8492 5.22099 70.9321 6.88367 69.4009 8.93021C66.6276 3.55185 61.5124 0.181206 55.8644 0.181206C52.744 0.181206 49.7615 1.24437 47.2513 3.10329L48.2304 0.545658H24.3275L24.2283 1.99268C24.2067 2.314 24.1744 2.62239 24.1334 2.91999H22.1214C21.414 2.91999 20.8253 3.4699 20.7886 4.17508C20.7024 5.76228 20.3767 7.05619 19.8182 8.05035C18.658 8.26816 17.446 8.19483 16.4842 8.0525C14.7051 7.79157 13.3271 7.24381 13.3141 7.2395L11.796 6.62489C11.5005 6.50412 11.177 6.72193 11.177 7.0411V10.0387C10.7759 9.92868 10.3899 9.80791 10.0341 9.67852C9.83999 9.60736 9.63727 9.55991 9.43025 9.56854C8.41021 9.60951 7.72444 10.4117 7.72444 11.3002V26.2729C7.51957 26.3161 7.32117 26.3678 7.13571 26.4304C5.92375 26.8336 4.95331 27.597 4.28695 28.6494C4.07561 28.6926 3.8729 28.74 3.68312 28.8025C2.24472 29.2791 1.14058 30.2604 0.491471 31.6384C-0.315068 33.3485 -0.125294 35.2937 0.998253 36.8442C2.0377 38.2783 3.66156 39.1344 5.34149 39.1344C5.42128 39.1344 5.50107 39.1323 5.58086 39.128L4.5371 55.4442L5.51832 55.8863C5.69947 55.9682 7.35136 56.6777 9.73216 56.6777C11.3927 56.6777 13.3681 56.337 15.3822 55.2242L10.7845 65.7675L12.8332 66.0349C16.5489 66.5179 35.1489 68.9332 36.4191 68.9332C37.0121 68.9332 37.4564 68.6572 37.726 68.282C39.7466 68.8276 41.9355 68.9591 43.9755 68.9591C45.9078 68.9591 47.7279 68.5796 49.3323 67.8528L49.7248 69.6233L55.8558 66.3325L55.6553 66.6991H74.8289C76.8711 66.6991 78.6524 66.0866 80.0822 64.9113L83.4765 66.4856C85.0659 67.2231 86.7825 67.6436 88.5314 67.7277L88.7902 67.7407C89.0037 67.7515 89.215 67.7558 89.4285 67.7558C90.5262 67.7558 91.6196 67.6221 92.687 67.3568C93.7567 67.0916 94.7767 66.6969 95.7385 66.188L97.7592 68.6184L100.888 66.1966L101.009 66.4015L106.232 62.3602C107.612 65.0731 110.325 67.9477 114.893 67.9477C116.829 67.9477 119.628 67.318 122.494 64.5339C123.034 64.2902 123.566 63.9991 124.084 63.6605C124.946 64.5469 125.906 65.3275 126.917 65.9594C128.785 67.1239 130.739 67.7213 132.641 67.7213C133.1 67.7213 133.557 67.6868 134.008 67.6156C136.598 67.2123 138.763 66.0737 140.407 64.314C143.048 63.1516 145.19 60.9908 146.399 58.2865C146.911 58.5388 147.473 58.6704 148.066 58.6704C149.222 58.6704 150.497 58.1593 151.562 57.2665C151.961 56.9322 152.313 56.5548 152.615 56.1494C153.443 55.9402 154.279 55.5089 155.017 54.8921C156.365 53.7643 157.193 52.1447 157.236 50.5597C157.288 48.6792 156.395 47.6397 155.638 47.0985V47.1028ZM17.8989 30.5213L17.5733 30.4588L17.6552 30.3488C17.7307 30.4135 17.8126 30.4695 17.8989 30.5213Z" fill="#F9ED32"/>
<path d="M48.0947 41.1357C48.0947 45.0648 44.9613 48.25 41.0947 48.25C39.3781 48.25 37.8038 47.6225 36.5875 46.5787C35.0629 45.274 34.0946 43.3202 34.0946 41.1357C34.0946 40.4736 34.183 39.8331 34.3491 39.225C35.1707 36.2231 37.8793 34.0213 41.0947 34.0213C44.9613 34.0213 48.0947 37.2065 48.0947 41.1357Z" fill="#242428"/>
<path d="M26.0206 14.8132C21.5048 27.4418 10.8473 27.0061 9.43695 26.8897C9.34853 26.8832 9.28168 26.8077 9.28168 26.7193V11.3024C9.28168 11.1837 9.39813 11.1018 9.51027 11.1406C11.1665 11.7423 21.2935 14.9879 22.2898 4.94709C22.3157 4.67968 22.5421 4.47266 22.8117 4.47266H42.5223L34.1442 26.301" fill="#242428"/>
<path d="M29.7126 9.80786L33.9846 34.7998C34.0213 35.0154 33.8315 35.2009 33.6159 35.1599L15.3458 31.6081C15.1194 31.565 15.018 31.2997 15.1539 31.1143L22.6133 21.0433" fill="#242428"/>
<path d="M66.4909 20.561C66.7776 11.7331 60.7076 4.37199 52.9332 4.11952C45.1587 3.86705 38.6239 10.8188 38.3373 19.6467C38.0506 28.4746 44.1206 35.8357 51.895 36.0882C59.6694 36.3407 66.2042 29.3889 66.4909 20.561Z" fill="#242428"/>
<path d="M95.2559 21.8351C96.4775 13.0874 91.2227 5.12391 83.519 4.04807C75.8152 2.97223 68.5798 9.19148 67.3582 17.9391C66.1366 26.6868 71.3914 34.6503 79.0951 35.7262C86.7989 36.802 94.0343 30.5828 95.2559 21.8351Z" fill="#242428"/>
<path d="M107.052 13.1872C104.32 12.9219 101.896 15.1604 100.576 18.6906L100.479 18.6561L106.071 4.53735L89.6379 4.67106L91.7944 17.3298L93.2393 22.1022L88.8357 35.1901H105.391C105.391 35.1901 105.396 35.1901 105.398 35.1901C109.208 35.5611 112.667 30.9353 113.122 24.8582C113.58 18.7812 110.86 13.5559 107.052 13.185V13.1872Z" fill="#242428"/>
<path d="M129.214 24.3213L137.23 4.30444H119.376L122.859 11.904C121.615 10.4678 120.028 9.43912 118.179 9.00781C112.499 7.67724 106.523 12.4496 104.833 19.6675C103.142 26.8854 106.377 33.8164 112.057 35.147C115.687 35.9967 119.435 34.3534 122.109 31.1747L119.853 35.3001L131.852 34.9637C131.412 26.0206 141.364 30.4264 141.364 30.4264L143.838 16.3874C143.838 16.3874 134.304 12.9413 129.214 24.3213Z" fill="#242428"/>
<path d="M37.3207 50.8853L36.9735 40.879C36.9735 40.879 30.0684 40.5512 30.7067 32.4664L17.9681 34.3491C16.4456 45.8261 7.06691 40.2536 7.06691 40.2536L6.15686 54.4694C6.15686 54.4694 15.0072 58.4439 20.7436 46.8202L13.0362 64.4951C13.0362 64.4951 36.4646 67.5466 36.4754 67.374C36.484 67.2317 30.0317 51.0103 26.9781 46.3566C31.9877 53.9885 37.3229 50.8853 37.3229 50.8853H37.3207Z" fill="#242428"/>
<path d="M59.7313 62.4594L58.2692 65.1485H74.8248C74.8248 65.1485 74.8291 65.1485 74.8313 65.1485C79.8818 65.1485 82.1009 60.8937 82.5559 54.8166C83.0131 48.7396 80.2937 43.5143 76.4853 43.1434C73.753 42.8781 71.2342 45.0821 69.9123 48.6123L76.3106 33.5986L59.617 31.3084L60.1389 47.9136L59.8046 35.1556H49.1644L44.4222 55.8712" fill="#242428"/>
<path d="M75.7866 34.9486L83.6018 31.2631L95.4196 37.0016L97.1901 37.5947L99.78 38.6751L96.886 41.2608L94.7273 43.2146L87.2054 50.3332L91.8721 46.913L95.633 45.9361L99.256 47.1222L102.042 50.6114L102.251 54.7994L101.277 58.2886L99.256 61.0813L99.0878 61.3099C98.4408 62.1919 97.6753 62.9812 96.8127 63.6541L96.7933 63.6692C95.4692 64.7021 93.9445 65.4461 92.3142 65.8516C91.1885 66.1319 90.0261 66.2462 88.8659 66.1923L88.6071 66.1793C87.0587 66.106 85.5405 65.7329 84.1345 65.0817L78.2213 62.3386L74.704 43.3461L73.9988 38.8304" fill="#242428"/>
<path d="M101.076 48.8603L111.013 49.1644L108.973 51.1721L107.451 53.3157L106.435 56.6993L106.718 59.1254C106.718 59.1254 108.128 66.4015 114.895 66.4015C121.662 66.4015 126.23 57.3225 125.835 54.9525C125.44 52.5825 124.819 47.1135 119.687 47.1135L116.924 47.1696L117.545 46.0417L120.422 43.1628L113.304 40.3701L115.141 37.448L115.346 36.2835L114.395 35.1966L98.0742 29.7924L92.7325 48.2975L95.6007 63.5937L97.9988 66.4769L110.174 57.0551L101.08 48.8603" fill="#242428"/>
<path d="M137.319 38.6643L137.64 46.4601C137.64 46.4601 143.023 50.0335 142.268 56.1709C141.513 62.3084 138.019 65.4246 133.769 66.0845C129.518 66.7444 125.412 63.5355 123.336 60.2295C121.259 56.9236 113.752 44.1311 113.752 44.1311L111.486 38.0411L113.577 36.786L126.269 32.2745C126.269 32.2745 126.799 40.8877 137.319 38.66" fill="#242428"/>
<path d="M34.6812 16.0554L32.0826 23.601C32.0826 23.601 33.9609 35.684 42.3304 35.5395C50.702 35.395 53.0095 27.8903 53.0095 27.8903L45.3603 17.2113L34.6812 16.0575V16.0554Z" fill="#242428"/>
<path d="M145.675 39.1861C143.219 40.1523 141.468 43.9693 140.504 45.9188C140.487 45.9511 140.471 45.9857 140.454 46.018C140.51 45.9015 140.989 45.7506 141.103 45.701C141.608 45.4832 142.143 45.3085 142.688 45.2373C143.849 45.0885 144.543 45.8067 145.239 46.4817C146.083 47.299 147.176 47.864 148.509 47.4521C150.486 46.8396 151.017 44.7543 150.846 43.1304C150.698 41.7157 149.962 40.2946 148.671 39.5204C147.579 38.8648 146.579 38.8325 145.673 39.1883L145.675 39.1861Z" fill="#242428"/>
<path d="M151.282 50.7408C149.643 49.5698 144.858 50.7753 144.938 50.8271C145.287 51.0578 145.621 51.3317 145.884 51.6595C146.445 52.3604 146.216 53.1669 146.02 53.9562C145.781 54.9094 145.817 55.91 146.63 56.6001C147.836 57.6244 149.501 56.9732 150.568 56.0804C151.498 55.3018 152.199 54.1287 152.233 52.8973C152.261 51.8557 151.89 51.1743 151.286 50.743L151.282 50.7408Z" fill="#242428"/>
<path d="M4.175 30.2798C6.77792 29.415 12.5315 31.4982 12.5639 31.509C12.4474 31.468 11.9622 31.6599 11.8393 31.6988C11.2937 31.8648 10.7459 32.074 10.2542 32.3587C9.20617 32.9646 9.06384 33.8445 8.89131 34.6985C8.68429 35.7314 8.11928 36.7558 6.77145 37.2971C4.77236 38.0993 3.09027 37.0814 2.25786 35.9363C1.53542 34.94 1.29389 33.5814 1.89772 32.3047C2.40666 31.2243 3.2132 30.5989 4.17285 30.2819L4.175 30.2798Z" fill="#242428"/>
<path d="M45.6816 49.8847C42.6495 49.8847 40.6138 51.0967 38.6082 54.8728C38.3602 55.3364 38.1143 55.8389 37.8663 56.3823C38.1143 55.8367 38.3602 55.3364 38.6082 54.8728L41.6036 48.6124L33.5317 48.4873L32.0524 60.7536C33.4519 66.3713 38.2847 67.4065 43.9801 67.4065C46.3156 67.4065 48.4268 66.7897 50.096 65.6597C52.3129 64.1609 53.7556 61.7607 53.913 58.7092L53.9281 58.3232C53.9281 53.663 50.2383 49.8826 45.6859 49.8826L45.6816 49.8847Z" fill="#242428"/>
<path d="M48.2478 55.7439L50.8011 67.2856L62.7871 60.8527L48.2478 55.7439Z" fill="#242428"/>
<path d="M64.5253 14.6255L69.2761 13.4524L69.8627 14.8584L69.8044 19.2599L69.1014 24.1876L67.1066 23.3659L64.6999 23.2495L64.5253 14.6255Z" fill="#242428"/>
<path d="M32.6799 34.3577L35.3411 35.1362C35.5869 35.2074 35.822 35.0004 35.781 34.7481L35.4317 32.3457L32.2379 33.3787L32.6799 34.3599V34.3577Z" fill="#242428"/>
<path d="M117.97 39.1042C118.678 39.1042 119.251 38.3569 119.251 37.4351C119.251 36.5132 118.678 35.7659 117.97 35.7659C117.263 35.7659 116.689 36.5132 116.689 37.4351C116.689 38.3569 117.263 39.1042 117.97 39.1042Z" fill="#242428"/>
<path d="M51.5494 38.7613C51.5494 42.6905 48.416 45.8756 44.5494 45.8756C42.8328 45.8756 41.2585 45.2481 40.0423 44.2043C38.5176 42.8996 37.5493 40.9458 37.5493 38.7613C37.5493 38.0992 37.6377 37.4587 37.8038 36.8506C38.6254 33.8487 41.334 31.6469 44.5494 31.6469C48.416 31.6469 51.5494 34.8321 51.5494 38.7613Z" fill="#F9ED32"/>
<path d="M29.4732 12.4388C24.9574 25.0674 14.2999 24.6317 12.8895 24.5153C12.8011 24.5088 12.7343 24.4333 12.7343 24.3449V8.92797C12.7343 8.80936 12.8507 8.72741 12.9628 8.76623C14.6191 9.3679 24.7461 12.6135 25.7424 2.5727C25.7683 2.30529 25.9947 2.09827 26.2643 2.09827H45.9749L37.5968 23.9266" fill="#F9ED32"/>
<path d="M33.1651 7.43347L37.4372 32.4254C37.4739 32.641 37.2841 32.8265 37.0684 32.7855L18.7984 29.2337C18.572 29.1906 18.4706 28.9254 18.6065 28.7399L26.0659 18.6689" fill="#F9ED32"/>
<path d="M69.9447 18.1868C70.2314 9.35895 64.1614 1.99785 56.387 1.74538C48.6125 1.49291 42.0777 8.44467 41.7911 17.2726C41.5044 26.1005 47.5744 33.4616 55.3488 33.714C63.1232 33.9665 69.658 27.0147 69.9447 18.1868Z" fill="#F9ED32"/>
<path d="M98.7061 19.4604C97.4855 28.2073 90.1404 35.0262 82.5451 33.3527C75.7197 31.8475 69.5866 24.3126 70.8072 15.5657C72.0278 6.81889 79.265 0.599488 86.9681 1.67343C94.6712 2.74954 99.9267 10.7136 98.7061 19.4604Z" fill="#F9ED32"/>
<path d="M110.504 10.8128C107.772 10.5475 105.348 12.786 104.028 16.3162L103.931 16.2817L109.523 2.16296L93.0906 2.29667L95.2471 14.9554L96.6919 19.7278L92.2883 32.8157H108.844C108.844 32.8157 108.848 32.8157 108.85 32.8157C112.661 33.1867 116.12 28.5609 116.575 22.4839C117.032 16.4068 114.313 11.1815 110.504 10.8106V10.8128Z" fill="#F9ED32"/>
<path d="M132.667 21.9469L140.683 1.93005H122.829L126.312 9.52963C125.067 8.09339 123.48 7.06473 121.632 6.63342C115.952 5.30285 109.976 10.0752 108.285 17.2931C106.595 24.511 109.829 31.442 115.51 32.7726C119.139 33.6223 122.887 31.979 125.561 28.8003L123.306 32.9257L135.304 32.5893C134.864 23.6462 144.817 28.052 144.817 28.052L147.29 14.013C147.29 14.013 137.756 10.5669 132.667 21.9469Z" fill="#F9ED32"/>
<path d="M40.7733 48.5109L40.4261 38.5046C40.4261 38.5046 33.5209 38.1768 34.1593 30.092L21.4207 31.9747C19.8982 43.4517 10.5195 37.8792 10.5195 37.8792L9.60944 52.095C9.60944 52.095 18.4598 56.0695 24.1961 44.4458L16.4887 62.1207C16.4887 62.1207 40.0552 64.5058 40.066 64.3333C40.0746 64.1909 33.4843 48.636 30.4285 43.9822C35.4381 51.6141 40.7733 48.5109 40.7733 48.5109Z" fill="#F9ED32"/>
<path d="M49.1342 47.5102C46.1021 47.5102 44.0664 48.7222 42.0608 52.4983C41.8128 52.9619 41.567 53.4644 41.319 54.0078C41.567 53.4622 41.8128 52.9619 42.0608 52.4983L45.0562 46.2379L36.9843 46.1128L35.8845 55.2306L37.2949 57.5122C37.9073 59.9663 37.8944 60.6715 39.3651 62.1422C41.168 63.9451 44.2238 65.0319 47.4305 65.0319C49.766 65.0319 51.8773 64.4152 53.5464 63.2852C55.7633 61.7864 57.206 59.3862 57.3635 56.3347L57.3786 55.9487C57.3786 51.2884 53.6888 47.5081 49.1363 47.5081L49.1342 47.5102Z" fill="#F9ED32"/>
<path d="M63.1839 60.0871L61.7218 62.7763H78.2774C78.2774 62.7763 78.2817 62.7763 78.2839 62.7763C83.3344 62.7763 85.5535 58.5215 86.0085 52.4444C86.4657 46.3673 83.7463 41.1421 79.9379 40.7711C77.2056 40.5059 74.6868 42.7099 73.3648 46.2401L79.7632 31.2264L63.0696 28.9362L63.5915 45.5414L63.2572 32.7834H52.6169L47.8748 53.4989" fill="#F9ED32"/>
<path d="M79.2392 32.5742L87.0544 28.8887L98.8721 34.6272L100.643 35.2181L103.233 36.3007L100.341 38.8842L98.1799 40.8402L90.658 47.9588L95.3247 44.5386L99.0856 43.5617L102.709 44.7478L105.495 48.237L105.704 52.425L104.729 55.9142L102.709 58.7069L101.563 60.2661L98.2381 62.8647L94.0674 63.8998L89.7155 63.695L82.4093 59.3539L78.1566 40.9717L77.4514 36.456" fill="#F9ED32"/>
<path d="M104.529 46.4859L114.466 46.79L112.426 48.7977L110.903 50.9413L109.888 54.3249L110.17 56.751C110.17 56.751 111.581 64.0271 118.348 64.0271C125.115 64.0271 129.682 54.9481 129.288 52.5781C128.893 50.2081 128.272 44.7391 123.139 44.7391L120.377 44.7952L120.998 43.6674L123.875 40.7884L116.756 37.9957L118.594 35.0736L118.798 33.9091L117.847 32.8222L101.527 27.418L96.1851 45.9231L100.19 62.3342L101.451 64.1025L113.627 54.6807L104.533 46.4859" fill="#F9ED32"/>
<path d="M140.771 36.2899L141.092 44.0857C141.092 44.0857 146.475 47.659 145.72 53.7965C144.966 59.9339 141.472 63.0501 137.222 63.71C132.971 64.3699 128.865 61.161 126.788 57.8551C124.712 54.5491 120.263 45.936 120.263 45.936L118.632 35.5308L117.03 34.4115L129.721 29.9001C129.721 29.9001 130.252 38.5132 140.771 36.2855" fill="#F9ED32"/>
<path d="M38.1338 13.6809L35.5352 21.2266C35.5352 21.2266 37.4135 33.3096 45.7829 33.1651C54.1524 33.0206 56.462 25.5159 56.462 25.5159L48.8129 14.8368L38.1338 13.6831V13.6809Z" fill="#F9ED32"/>
<path d="M149.128 36.8118C146.671 37.7779 144.92 41.5949 143.956 43.5444C143.939 43.5768 143.924 43.6113 143.907 43.6436C143.963 43.5272 144.442 43.3762 144.556 43.3266C145.06 43.1088 145.595 42.9341 146.141 42.8629C147.301 42.7141 147.996 43.4323 148.692 44.1073C149.535 44.9246 150.629 45.4896 151.961 45.0777C153.939 44.4652 154.469 42.3799 154.299 40.756C154.15 39.3414 153.415 37.9202 152.123 37.146C151.032 36.4904 150.031 36.4581 149.126 36.8139L149.128 36.8118Z" fill="#F9ED32"/>
<path d="M154.735 48.3664C153.096 47.1954 148.31 48.4009 148.39 48.4527C148.74 48.6834 149.074 48.9573 149.337 49.2851C149.898 49.986 149.669 50.7925 149.473 51.5818C149.233 52.535 149.27 53.5356 150.083 54.2257C151.289 55.25 152.953 54.5988 154.021 53.706C154.95 52.9275 155.651 51.7543 155.686 50.5229C155.714 49.4813 155.343 48.7999 154.739 48.3686L154.735 48.3664Z" fill="#F9ED32"/>
<path d="M7.62764 27.9053C10.2306 27.0406 15.9842 29.1238 16.0165 29.1345C15.9001 29.0936 15.4148 29.2855 15.2919 29.3243C14.7463 29.4904 14.1986 29.6995 13.7069 29.9842C12.6588 30.5902 12.5165 31.47 12.344 32.324C12.1369 33.357 11.5719 34.3814 10.2241 34.9226C8.225 35.7249 6.54291 34.707 5.71049 33.5619C4.98806 32.5656 4.74653 31.207 5.35035 29.9303C5.85929 28.8499 6.66583 28.2245 7.62548 27.9075L7.62764 27.9053Z" fill="#F9ED32"/>
<path d="M67.9778 12.2512L72.7308 11.078L73.3174 12.4862L73.257 16.8855L72.554 21.8132L70.5592 20.9937L68.1525 20.8751L67.9778 12.2512Z" fill="#F9ED32"/>
<path d="M51.7004 53.3695L54.2538 64.9112L66.2397 58.4783L51.7004 53.3695Z" fill="#F9ED32"/>
<path d="M151.069 45.6471C150.135 45.6471 149.238 45.2352 148.392 44.4157L148.321 44.3467C147.672 43.717 147.111 43.1735 146.197 43.29C145.751 43.3482 145.27 43.4884 144.728 43.7213C144.144 43.9736 143.879 44.0879 143.646 43.8421L143.439 43.6242L143.745 42.9967C144.776 40.8963 146.503 37.379 148.972 36.4085C150.083 35.9708 151.22 36.0937 152.35 36.7708C153.667 37.5623 154.558 39.033 154.732 40.7065C154.918 42.477 154.338 44.7931 152.093 45.4853C151.748 45.591 151.407 45.6449 151.073 45.6449L151.069 45.6471ZM146.449 42.4101C147.564 42.4101 148.282 43.1067 148.921 43.7278L148.992 43.7968C149.91 44.6874 150.84 44.9721 151.834 44.6637C153.579 44.1246 154.023 42.2441 153.872 40.7992C153.725 39.3932 152.99 38.1661 151.903 37.5127C151.004 36.9714 150.148 36.8743 149.285 37.2129C147.34 37.9785 145.822 40.7561 144.825 42.7552C145.272 42.5913 145.686 42.4856 146.085 42.436C146.21 42.4188 146.333 42.4123 146.449 42.4123V42.4101Z" fill="#242428"/>
<path d="M151.515 55.1831C150.92 55.1831 150.329 55.002 149.803 54.5556C149.231 54.0704 148.638 53.1431 149.054 51.4782L149.074 51.3985C149.253 50.6846 149.408 50.0679 149 49.5568C148.793 49.298 148.517 49.0565 148.153 48.8149C147.752 48.5497 147.51 48.3901 147.579 48.0709L147.642 47.7841L148.246 47.6806C150.135 47.355 153.294 46.8094 154.987 48.017C155.765 48.5734 156.145 49.4209 156.115 50.5337C156.08 51.8017 155.401 53.1129 154.297 54.0359C153.551 54.6613 152.526 55.1831 151.515 55.1831ZM149.067 48.416C149.305 48.6079 149.505 48.8085 149.673 49.0177C150.348 49.863 150.115 50.7903 149.911 51.6076L149.891 51.6874C149.639 52.6924 149.794 53.4148 150.361 53.8979C151.37 54.7562 152.813 54.1523 153.743 53.376C154.661 52.6083 155.224 51.5365 155.252 50.51C155.274 49.6883 155.024 49.1018 154.485 48.7179C153.262 47.8445 150.771 48.1378 149.067 48.416Z" fill="#242428"/>
<path d="M8.78565 35.6451C7.26961 35.6451 6.04687 34.7609 5.36109 33.8142C4.48123 32.6001 4.33028 31.0776 4.95998 29.7448C5.48186 28.6364 6.33368 27.8794 7.48958 27.4956C10.1205 26.6222 15.1733 28.3172 15.7404 28.5135L16.0035 28.604L16.0574 29.1647L15.8094 29.3071C15.7922 29.3157 14.4034 30.0791 13.9203 30.3573C13.0771 30.8447 12.9413 31.5283 12.7817 32.3219L12.7644 32.4081C12.4798 33.8207 11.6797 34.7997 10.3815 35.3216C9.82293 35.5459 9.28596 35.6429 8.78349 35.6429L8.78565 35.6451ZM7.76346 28.3151C6.82753 28.6256 6.16548 29.2143 5.74064 30.1136C5.24895 31.1595 5.36756 32.3521 6.05981 33.3096C6.79087 34.3188 8.27671 35.2418 10.0623 34.5237C11.0867 34.1118 11.6948 33.3656 11.9212 32.2399L11.9385 32.1537C12.1132 31.2824 12.3094 30.2948 13.4912 29.6111C13.7176 29.4796 14.136 29.2467 14.5241 29.0332C12.8981 28.5523 9.57278 27.7156 7.76346 28.3151Z" fill="#242428"/>
<path d="M143.079 45.2718C142.593 44.7931 142.072 44.3682 141.522 44.0016L141.181 35.768L140.687 35.8672C137.084 36.5853 134.325 36.195 132.49 34.7092C131.932 34.2585 131.509 33.7387 131.185 33.2147H135.693L135.673 32.764C135.57 30.4565 136.128 28.8672 137.329 28.0434C139.814 26.3397 144.325 28.2849 144.37 28.3043L144.873 28.5243L147.506 13.5882L147.165 13.4653C147.064 13.4286 144.636 12.5703 141.537 13.1461C138.528 13.7047 136.301 15.3522 134.668 17.2888L141.047 1.35642H122.087L125.488 8.55705C124.382 7.44644 123.023 6.3919 121.447 6.06842C117.045 5.167 113.25 6.70675 110.722 10.4095C110.664 10.4009 110.608 10.3922 110.55 10.3858C108.939 10.2283 107.393 10.8408 106.092 12.0722L106.439 11.2009L106.418 11.1923L110.166 1.7295L92.5773 1.87399L92.9007 3.60352C91.1885 2.38293 89.2045 1.55267 87.0328 1.25075C80.7207 0.370894 74.4884 4.20734 71.7151 10.623C70.846 10.6963 69.9812 10.8645 69.1445 11.1255C69.0324 10.8365 68.9138 10.5518 68.7865 10.2693C68.297 9.21694 67.7104 8.20985 67.0311 7.26529C66.3389 6.32936 65.5431 5.47322 64.6697 4.7055L63.9969 4.14912L63.2831 3.64449L63.1041 3.51941L62.9165 3.40727L62.5412 3.183L62.166 2.95872L61.7735 2.76463C61.2581 2.4886 60.7104 2.28373 60.1669 2.07023L59.328 1.81361C59.19 1.76616 59.0455 1.73597 58.9032 1.70578L58.474 1.61305C56.1838 1.1343 53.7685 1.31545 51.5645 2.08748C50.4669 2.48644 49.421 3.01694 48.4505 3.66174C47.493 4.32595 46.6153 5.09799 45.8239 5.94766C45.1769 6.65715 44.6076 7.43134 44.0944 8.24004L46.611 1.67128H25.3865L25.3585 2.07239C25.1558 5.06995 24.1336 7.16393 22.3243 8.29611C18.6841 10.5755 12.9607 8.30689 12.9025 8.28317L12.3094 8.04379V24.8862L12.6868 24.9337C12.7321 24.9401 13.131 24.9854 13.7909 24.9854C15.0029 24.9854 17.0883 24.8258 19.4453 23.9546C20.543 23.5492 21.7657 22.9561 23.0057 22.0914L18.27 28.4855C18.1169 28.6925 18.0824 28.9577 18.1751 29.1971C18.2679 29.4365 18.4749 29.609 18.7315 29.6586L25.6108 30.9223L21.0455 31.5973L21.0023 31.9186C20.5581 35.2656 19.3957 37.4199 17.5476 38.317C14.5975 39.7511 10.7869 37.5321 10.7481 37.5105L10.1421 37.1525L9.16736 52.3689L9.43908 52.4918C9.58141 52.5565 12.965 54.0381 16.9761 52.4789C18.7552 51.7888 20.3597 50.6178 21.7787 48.9789L15.8634 62.4873L16.4478 62.5498C16.506 62.5563 22.4386 63.1946 28.3173 63.8049C36.9088 64.6977 39.4104 64.935 40.2126 64.935C40.5383 64.935 40.5835 64.8961 40.6439 64.8465L40.7863 64.7258L40.797 64.5425C40.8014 64.4886 40.8035 64.4346 40.3248 63.4017C41.8537 64.5942 43.827 65.2973 46.0568 65.3943C46.4708 65.4116 46.8892 65.4202 47.3011 65.4202C49.5439 65.4202 51.6142 64.8681 53.3135 63.8222L54.0489 65.5129L62.0948 61.1934L61.0015 63.2054H78.2881C80.5568 63.2054 82.3834 62.3773 83.7355 60.7664C83.8369 60.8548 83.949 60.954 84.0698 61.0618C85.4241 62.2738 87.8243 64.4217 92.4155 64.4217C92.9525 64.4217 93.5197 64.3915 94.1192 64.329C96.4374 64.0831 98.3179 63.2313 99.8124 62.1811L101.333 64.743L109.903 58.1117C109.989 58.3727 110.088 58.6315 110.198 58.8816C111.251 61.2646 113.219 63.0976 115.6 63.9106C116.5 64.2168 117.414 64.3678 118.328 64.3678C120.48 64.3678 122.637 63.5311 124.591 61.9007C125.57 61.0856 126.43 60.1195 127.151 59.0649C129.055 62.2113 132.363 64.1371 135.947 64.1371C141.688 64.1371 146.359 59.2396 146.359 53.2207C146.359 51.295 145.873 49.3994 144.955 47.7432C144.448 46.8288 143.818 45.9986 143.083 45.2718H143.079ZM121.27 6.91162C123.424 7.35371 125.227 9.48004 126.42 10.8861C126.51 10.9939 126.599 11.0974 126.683 11.1966L130.064 16.4413L130.789 15.9733L127.614 11.05L123.441 2.21688H139.766L131.988 21.6428L132.781 21.9792C134.823 17.4117 137.806 14.7269 141.647 14.0001C143.874 13.5774 145.768 13.9699 146.518 14.1726L144.202 27.3123C142.863 26.8163 139.206 25.7057 136.836 27.3296C135.455 28.2763 134.767 29.9627 134.791 32.3499H130.733C130.174 31.0517 130.148 29.9152 130.148 29.898L130.142 29.3222L124.295 31.0905L125.652 28.8801H125.647L128.841 23.7993L128.11 23.34L124.912 28.4272C124.768 28.5976 124.627 28.7701 124.485 28.9448C122.967 30.8016 121.535 32.557 117.545 32.3241L113.942 31.2135C115.618 29.3394 116.724 26.2233 117.004 22.5184C117.433 16.7971 115.083 11.781 111.624 10.6165C113.963 7.37527 117.282 6.0943 121.268 6.91162H121.27ZM93.6102 2.72366L108.887 2.59858L103.724 15.6347C103.657 15.7965 103.591 15.9604 103.528 16.1286L103.539 16.1329L98.6133 28.4898L99.4134 28.8089L104.632 15.7167C105.956 12.7601 108.188 11.0198 110.461 11.2419C114.035 11.5891 116.584 16.6181 116.144 22.4537C115.863 26.1823 114.727 29.2532 113.021 30.9309L101.449 27.3684L99.8447 32.3866H95.6956L93.3881 31.3321L94.5246 28.9017H94.5203C96.9269 26.426 98.6328 23.0791 99.1676 19.2512C99.9914 13.3467 97.8219 7.7807 93.9229 4.41006L93.6081 2.72366H93.6102ZM99.2689 34.1981C98.9756 33.9458 98.6435 33.7323 98.2812 33.5662L97.5868 33.2492H99.5708L99.2668 34.1981H99.2689ZM92.2667 30.8188C92.4802 30.67 92.6915 30.5169 92.8964 30.3552L92.6074 30.9741L92.2667 30.8188ZM86.9099 2.10042C89.2584 2.42821 91.3718 3.41159 93.1336 4.86293L93.1358 4.86508C96.9658 8.02654 99.1158 13.4114 98.3158 19.1305C97.1491 27.4805 90.1382 33.4282 82.6788 32.3866C81.7796 32.2615 80.8954 32.0351 80.0479 31.7159L80.6452 30.3207L77.0201 29.9454C74.4129 27.7911 72.3297 24.5951 71.562 21.5846C73.2656 22.3803 74.3094 23.3874 74.3266 23.4047L74.8571 23.9287L78.1329 11.4727L77.7145 11.3627C76.5608 11.0608 75.4092 10.83 74.2964 10.6769C73.7595 10.6036 73.2182 10.5734 72.6747 10.5734C75.3725 4.74647 81.1089 1.28742 86.9099 2.09827V2.10042ZM70.0783 21.0217C70.2594 21.0756 70.4363 21.1339 70.6088 21.1943L70.5872 21.1986C71.1997 24.2371 73.0543 27.4137 75.5472 29.7945L66.4984 28.8564C67.7428 27.3792 68.6959 25.6583 69.3364 23.8425C69.6621 22.9238 69.9058 21.9792 70.0783 21.0217ZM74.18 11.533C75.1245 11.6624 76.0971 11.8501 77.0783 12.0916L74.3892 22.3156C73.6452 21.7161 72.1744 20.7047 70.212 20.1527C70.3478 19.1067 70.3974 18.05 70.3565 16.9998C70.2896 15.2789 69.9812 13.5666 69.4335 11.932C70.9711 11.4597 72.6014 11.3174 74.18 11.533ZM46.3889 6.46738C47.1437 5.66084 47.9761 4.93193 48.8818 4.30654C49.8005 3.70056 50.7882 3.20025 51.8212 2.82933C53.8936 2.10905 56.1601 1.943 58.308 2.39587L58.7091 2.48428C58.8428 2.51232 58.9765 2.54035 59.1081 2.58564L59.8952 2.82717C60.4063 3.02988 60.9195 3.22181 61.4048 3.48275L61.7735 3.66606L62.1272 3.8774L62.4809 4.08874L62.6577 4.1944L62.8259 4.31301L63.4987 4.79176L64.1349 5.32011C64.9609 6.04686 65.7135 6.85986 66.3669 7.75051C67.0095 8.64762 67.5659 9.60727 68.0296 10.6101C68.9375 12.6264 69.4378 14.8239 69.5176 17.0343C69.5542 18.0112 69.5068 18.9903 69.3839 19.9607C68.7369 19.8335 68.0468 19.7602 67.3179 19.771V16.9287H66.4553V20.6788L66.9125 20.6508C67.7428 20.5991 68.5277 20.6702 69.2545 20.819C69.0884 21.7506 68.8512 22.6693 68.5321 23.56C67.8549 25.4555 66.837 27.2217 65.5431 28.7615L62.6275 28.4596L62.7138 31.2307C62.3277 31.4528 61.946 31.6793 61.5536 31.8841C61.0662 32.1408 60.5616 32.3672 60.044 32.5591C59.0089 32.9387 57.9241 33.178 56.8265 33.2708C55.7309 33.3506 54.6031 33.3074 53.514 33.1392C52.811 33.0314 52.1188 32.8675 51.4481 32.6454C52.0994 32.3003 52.7118 31.8884 53.2833 31.4054C55.8905 29.2036 57.4217 25.738 57.5899 21.6385L57.6071 21.1015C57.6071 14.5371 53.389 9.19538 48.2025 9.19538C46.3867 9.19538 44.9009 9.68706 43.5984 10.8171C43.8485 10.2434 44.1224 9.68059 44.4372 9.13931C45.0066 8.19044 45.6492 7.28686 46.3954 6.47169L46.3889 6.46738ZM62.7461 32.3499H62.4722C62.5628 32.296 62.6534 32.2443 62.7418 32.1882L62.7461 32.3499ZM48.7568 47.4283C47.2235 47.4628 45.9554 47.81 44.8405 48.567L46.0676 46.3975L45.9447 46.3803C47.2019 46.1279 48.3729 45.5565 49.3606 44.7586L48.7568 47.4283ZM41.058 45.5177C41.1982 45.619 41.3383 45.7096 41.4763 45.7937L41.0645 45.7398L41.058 45.5177ZM44.517 45.6621C42.9902 45.6621 42.1966 45.3839 41.0256 44.3984L40.8574 38.4917L40.8445 38.0388L40.3938 38.0733C40.3787 38.0733 39.3392 38.1445 38.151 37.655C38.4809 33.7732 41.4871 31.9984 44.2194 31.9984C48.0882 31.9984 51.4826 35.1577 51.4826 38.7591C51.4826 42.3605 48.2284 45.66 44.5192 45.66L44.517 45.6621ZM37.8642 32.3521L37.0167 27.3964C37.9914 29.3437 39.2487 30.9309 40.7194 32.0286C39.0114 32.971 37.6464 34.6768 37.3294 37.2258C37.0814 37.0662 36.8355 36.8786 36.6005 36.6544C35.6365 35.7378 35.0176 34.4267 34.7458 32.7424L36.9908 33.2082C37.0382 33.2169 37.0857 33.2212 37.1331 33.2212C37.325 33.2212 37.5127 33.1457 37.6528 33.0098C37.8275 32.8395 37.9073 32.5936 37.8663 32.3521H37.8642ZM49.8048 33.3355C50.027 33.2621 50.2448 33.1824 50.4604 33.0961C50.9607 33.3096 51.4761 33.4886 52.0002 33.6331L51.6077 35.699C51.1699 34.817 50.5531 34.0148 49.807 33.3376L49.8048 33.3355ZM19.0679 28.8434L26.4131 18.9256L26.4001 18.9148C27.7221 17.291 28.9362 15.2207 29.8786 12.5833L29.0656 12.2921C28.2094 14.6837 27.0924 16.7259 25.723 18.4123H25.7208L25.6949 18.4468C23.9331 20.6012 21.755 22.1668 19.1758 23.1287C16.4542 24.1422 14.0627 24.1465 13.1655 24.1012V9.29458C13.7888 9.50376 14.8541 9.8143 16.12 10.0062C18.7984 10.4117 21.0972 10.0731 22.7728 9.02717C24.7461 7.79364 25.8912 5.60908 26.1801 2.53173H45.3495L40.0962 16.245C39.8245 16.8834 39.5549 17.5691 39.2853 18.311L39.3026 18.3175L37.8965 21.9857L38.7031 22.2941L40.9307 16.4801C42.9363 11.781 44.9656 10.0537 48.2004 10.0537C52.9102 10.0537 56.7424 15.0072 56.7424 21.0843L56.7273 21.604C56.5677 25.4534 55.1465 28.6989 52.7248 30.7433C52.0023 31.3536 51.2066 31.841 50.3483 32.2098C50.3483 32.2098 50.3461 32.2098 50.344 32.2098V32.2141C49.9062 32.4017 49.4555 32.5591 48.9897 32.682C47.6289 31.7224 45.9684 31.1401 44.2216 31.1401C43.359 31.1401 42.4705 31.2954 41.6316 31.6124C38.8044 29.7341 36.7406 25.9386 35.9643 21.1576H35.9535L33.5943 7.36233L32.7446 7.50682L36.9886 32.3262L34.6402 31.8388C34.5949 31.2932 34.5776 30.7175 34.5949 30.105L34.61 29.5917L28.2137 30.5363V30.5234L19.0723 28.8434H19.0679ZM17.1206 61.7541L25.0588 43.6242C25.1019 43.525 25.145 43.428 25.1882 43.3288L24.3967 42.9859L24.2695 43.277C22.3329 47.6354 19.7774 50.4582 16.672 51.6702C13.6227 52.8606 10.9077 52.1058 10.058 51.8104L10.9055 38.5737C12.1908 39.1926 15.266 40.3808 17.9099 39.0977C19.9737 38.0971 21.2827 35.8306 21.8024 32.3586L33.7193 30.5967C33.7193 33.5964 34.4892 35.8478 36.0139 37.2927C37.4695 38.6729 39.1969 38.9122 40.0056 38.9424L40.2795 48.5734C39.6627 48.6532 38.33 48.7481 36.7881 48.3988L36.5724 48.3082L36.5573 48.3448C34.7329 47.8855 32.654 46.7922 31.1143 44.3273C30.7606 43.6027 30.3961 42.8479 30.0166 42.0694L29.2252 42.4101C29.5508 43.2813 29.9282 44.0469 30.3465 44.7197C31.8238 47.7604 33.8142 51.8621 35.602 55.5563C35.6063 55.5864 35.6106 55.6145 35.6149 55.6425L35.643 55.6382C37.4652 59.4078 39.0697 62.7396 39.6886 64.0616C36.8549 63.8459 25.3175 62.6383 17.1228 61.7584L17.1206 61.7541ZM32.5311 47.2386C33.7366 48.2284 35.0391 48.7956 36.2446 49.1126C35.7163 50.5014 35.4489 51.8168 35.4273 53.2078C34.597 51.4934 33.6374 49.518 32.5311 47.2386ZM46.0891 64.5317C42.932 64.3937 40.342 62.951 38.9791 60.5723C38.3623 59.2849 37.5364 57.5704 36.4322 55.2845C36.1174 53.1237 36.318 51.2993 37.0965 49.3023C39.1646 49.6733 40.7733 49.367 40.81 49.3584L41.1658 49.2851L41.0903 46.611L44.6896 47.0854L42.078 51.6982C41.9012 51.9915 41.7265 52.2999 41.554 52.6255L41.5475 52.6385C41.293 53.1151 41.0407 53.6326 40.7949 54.1718L40.8078 54.1782L40.4628 54.8985L41.2413 55.2716L42.3131 53.0396L42.8501 52.0886C44.5192 49.3325 46.2638 48.2823 49.0048 48.2823C53.3113 48.2823 56.8157 51.8751 56.8157 56.2744L56.8006 56.6539C56.6626 59.3259 55.511 61.3055 53.1733 62.8841C51.5538 63.9775 49.5223 64.5554 47.299 64.5554C46.8978 64.5554 46.4924 64.5468 46.0913 64.5295L46.0891 64.5317ZM78.3076 62.3428H62.4485L63.4772 60.4494L66.8564 58.6358L63.8804 54.0683C64.0616 54.1028 64.2449 54.1265 64.4325 54.1265C64.8897 54.1265 65.3533 54.0187 65.7868 53.7901C66.7982 53.2596 67.4258 52.2223 67.4258 51.0815V42.1556H66.5631V51.0815C66.5631 51.901 66.1124 52.645 65.3878 53.0245C64.5295 53.4752 63.5009 53.2617 62.8906 52.5436L57.1068 43.6674L56.3844 44.1375L59.6925 49.2139L62.0021 52.7916C62.0625 52.8843 62.1272 52.9706 62.1962 53.0525L65.6251 58.3166L54.4651 64.3074L54.0381 63.3262C56.3305 61.642 57.5187 59.4703 57.661 56.6927L57.6761 56.2916C57.6761 51.6184 54.1243 47.782 49.6388 47.4477L50.4992 43.6458C51.6422 42.2893 52.3452 40.5728 52.3452 38.7591C52.3452 38.261 52.287 37.7714 52.1792 37.2927L52.8369 33.8336C53.018 33.8703 53.1992 33.9069 53.3803 33.9371C54.5427 34.1226 55.7072 34.1744 56.8868 34.0946C58.0621 34.0018 59.2245 33.7517 60.3308 33.3506C60.4537 33.3053 60.5745 33.26 60.6953 33.2104H62.772L63.1602 45.55L64.0228 45.5241L63.6777 32.3478H63.6087L63.516 29.4106L65.6035 29.6263L65.707 29.7255C65.7329 29.6996 65.7566 29.6715 65.7825 29.6457L76.6729 30.7735C76.6966 30.7929 76.7204 30.8145 76.7462 30.8339L76.785 30.7865L79.3944 31.056L77.0589 36.5142L77.0266 36.5185L77.0352 36.5702L73.4597 44.9268C73.2829 45.2891 73.1211 45.6708 72.9702 46.0697L68.4975 56.7014L69.2933 57.0356L73.7659 46.4061L74.2253 45.33C75.5645 42.5805 77.7145 40.9846 79.8991 41.196C83.4724 41.5432 86.0214 46.5722 85.5815 52.4077C85.0877 58.9873 82.64 62.3299 78.3097 62.3407L78.3076 62.3428ZM77.2832 38.1812L77.6692 40.6525C76.9791 40.9113 76.3214 41.3146 75.7133 41.8516L77.2854 38.179L77.2832 38.1812ZM94.02 63.4707C88.6847 64.0378 86.0538 61.6829 84.6391 60.4171C84.4989 60.292 84.3695 60.1777 84.2488 60.0742C85.4521 58.2821 86.1939 55.7352 86.4398 52.4746C86.9142 46.1754 84.0159 40.7323 79.9789 40.3398C79.4785 40.2902 78.9869 40.3183 78.5038 40.4132L77.9215 36.6845L79.7071 32.5117C80.6258 32.8589 81.5833 33.1047 82.5581 33.2406C83.1684 33.3247 83.7743 33.3678 84.376 33.3678C86.9099 33.3678 89.3468 32.6303 91.4925 31.3213L91.458 31.3968L97.9211 34.349C98.9368 34.8127 99.6485 35.7465 99.8253 36.8484C100.002 37.9504 99.6204 39.061 98.8031 39.8201L97.8348 40.7194L97.7701 40.6978L97.7292 40.8186L90.852 47.2019C90.5393 47.4758 90.218 47.7626 89.8859 48.0645L89.901 48.0818L87.5871 50.2296L88.1736 50.8615L91.4343 47.8338C95.784 44.021 97.9686 43.3223 100.716 44.6701C103.588 46.0783 106.433 49.2355 103.675 56.2701C103.647 56.3348 100.86 62.7375 94.0156 63.4664L94.02 63.4707ZM95.894 43.704L97.1383 42.5481L96.8558 43.3698C96.5431 43.4539 96.2218 43.5638 95.894 43.704ZM100.496 61.6571C103.252 59.4294 104.458 56.6518 104.479 56.6C105.419 54.202 106.362 50.4626 104.82 47.396L112.95 54.6548L101.57 63.4599L100.498 61.6527L100.496 61.6571ZM105.687 47.0164L113.176 47.1825C113.021 47.3593 112.836 47.5685 112.622 47.81C111.675 48.8754 110.927 50.0183 110.39 51.2152L105.689 47.0164H105.687ZM124.032 61.2365C121.485 63.3585 118.589 64.0184 115.872 63.0911C113.718 62.3558 111.934 60.6952 110.979 58.5301C110.837 58.2088 110.718 57.8788 110.621 57.5446L114.293 54.7023L111.063 51.8168C111.57 50.607 112.307 49.4533 113.263 48.3794C114.158 47.3715 114.568 46.7778 114.492 46.5981L114.382 46.3414L103.979 46.1129C103.291 45.2718 102.353 44.5149 101.096 43.8959C99.9676 43.3439 98.9217 43.0916 97.8219 43.1908L98.471 41.3017L99.3875 40.452C100.416 39.4966 100.897 38.0971 100.675 36.7104C100.569 36.0548 100.311 35.4467 99.9353 34.927L102.008 28.4423L118.21 33.4304C118.404 33.4907 118.55 33.6331 118.617 33.825C118.682 34.0169 118.654 34.2218 118.537 34.3857L112.033 43.6695L112.734 44.172L116.898 38.5133L123.096 40.9458L115.212 48.8646L115.518 49.1686L115.82 49.477L119.348 46.0287C119.976 45.4702 120.744 45.095 121.63 44.916C123.133 44.6098 124.58 44.9074 125.811 45.77C126.851 46.4989 127.677 47.6116 128.168 48.8969C127.358 49.8156 126.702 50.8744 126.26 52.0325L127.066 52.3409C127.407 51.4481 127.888 50.62 128.473 49.8781C128.52 50.0808 128.561 50.2879 128.593 50.4949C129.132 54.1243 127.254 58.5409 124.028 61.2301L124.032 61.2365ZM117.942 36.7514L118.19 38.0928L117.259 37.7283L117.942 36.7514ZM135.943 63.2723C132.522 63.2723 129.376 61.3465 127.67 58.2347C129.13 55.7503 129.827 52.8908 129.454 50.3741C129.389 49.9385 129.292 49.5137 129.165 49.1039C130.713 47.5189 132.781 46.4687 134.964 46.2724C136.385 46.1452 137.784 46.2487 139.128 46.5787L139.335 45.7419C137.899 45.3883 136.404 45.2783 134.886 45.4141C132.635 45.6168 130.491 46.6498 128.837 48.2198C128.276 46.9345 127.412 45.8368 126.316 45.0691C124.886 44.0663 123.211 43.7213 121.468 44.0749C121.354 44.0987 121.242 44.1245 121.132 44.1526L124.645 40.6245L119.055 38.4313L119.128 38.4184L118.652 35.8306L118.581 35.8435L119.253 34.8817C119.529 34.487 119.598 33.9997 119.443 33.5447C119.435 33.5188 119.422 33.495 119.413 33.4692L129.337 30.4673C129.467 31.5089 129.969 33.7689 131.94 35.3691C133.898 36.9584 136.73 37.4393 140.364 36.8032L140.64 43.4733C139.199 42.7099 137.597 42.3044 135.945 42.3044C133.402 42.3044 130.955 43.2749 129.05 45.0389L129.637 45.6708C131.38 44.0555 133.62 43.1649 135.945 43.1649C138.27 43.1649 140.7 44.131 142.475 45.8843C143.152 46.5528 143.732 47.3183 144.198 48.1594C145.045 49.6884 145.494 51.4373 145.494 53.2186C145.494 58.7608 141.209 63.2723 135.945 63.2723H135.943Z" fill="#242428"/>
<path d="M60.8203 23.6441L61.0317 17.953C61.0985 16.0553 61.1826 14.1597 61.2624 12.2619C61.34 10.3642 61.4198 8.46862 61.5147 6.57088L60.6521 6.53638C60.5982 8.43412 60.5292 10.3319 60.4602 12.2296C60.389 14.1273 60.3286 16.0251 60.2445 17.9206L60.0095 23.6117L59.7615 29.3028L60.6241 29.3373L60.8203 23.6441Z" fill="#242428"/>
<path d="M86.6191 5.82501L85.7286 28.5912L86.5906 28.625L87.4811 5.85873L86.6191 5.82501Z" fill="#242428"/>
<path d="M89.4666 33.0252L88.5768 46.0094L89.4374 46.0684L90.3272 33.0842L89.4666 33.0252Z" fill="#242428"/>
<path d="M108.675 31.9577L107.785 44.9419L108.646 45.0009L109.535 32.0167L108.675 31.9577Z" fill="#242428"/>
<path d="M121.418 12.2179L120.53 27.6655L121.391 27.715L122.279 12.2674L121.418 12.2179Z" fill="#242428"/>
</g>
<defs>
<clipPath id="clip0_1_255">
<rect width="157.238" height="69.6254" fill="white"/>
</clipPath>
</defs>
</svg>
