<svg width="696" height="271" viewBox="0 0 696 271" fill="none" xmlns="http://www.w3.org/2000/svg">
<path d="M18.0758 113H6.02527V28.4811H54.31V34.5476H60.3353V40.5729H66.3605V70.7406H60.3353V76.8071H54.31V82.8324H18.0758V113ZM18.0758 70.7406H48.2847V64.7153H54.31V46.5982H48.2847V40.5729H18.0758V70.7406ZM83.7827 113H71.7321V28.4811H83.7827V113ZM125.265 113H101.122V106.975H95.097V100.949H89.0717V88.8576H95.097V82.8324H107.148V76.8071H131.331V70.7406H125.265V64.7153H107.148V70.7406H89.0717V64.7153H95.097V58.69H101.122V52.6647H131.331V58.69H137.356V64.7153H143.382V113H131.331V106.975H125.265V113ZM104.135 100.949H125.265V94.9242H131.331V82.8324H125.265V88.8576H104.135V100.949ZM160.763 137.142H142.687V125.051H160.763V113H166.829V100.949H160.763V88.8576H154.737V76.8071H148.712V64.7153H142.687V52.6647H154.737V64.7153H160.763V76.8071H166.829V88.8576H178.88V76.8071H184.946V64.7153H190.971V52.6647H203.022V64.7153H196.997V76.8071H190.971V88.8576H184.946V100.949H178.88V113H172.854V125.051H166.829V131.076H160.763V137.142ZM235.466 113H217.349V106.975H211.324V61.7026H202.286V52.6647H211.324V34.5476H223.415V52.6647H235.466V61.7026H223.415V100.949H235.466V113ZM249.876 43.5856H237.825V31.535H249.876V43.5856ZM249.876 113H237.825V52.6647H249.876V113ZM267.215 113H255.165V52.6647H267.215V58.69H273.24V52.6647H291.357V58.69H303.449V52.6647H327.592V58.69H333.617V64.7153H339.683V113H327.592V70.7406H321.566V64.7153H309.475V70.7406H303.449V113H291.357V70.7406H285.332V64.7153H273.24V70.7406H267.215V113ZM387.232 113H357.023V106.975H350.998V100.949H344.972V64.7153H350.998V58.69H357.023V52.6647H387.232V58.69H393.257V64.7153H399.282V85.845H357.023V94.9242H363.048V100.949H381.165V94.9242H399.282V100.949H393.257V106.975H387.232V113ZM357.023 76.8071H387.232V70.7406H381.165V64.7153H363.048V70.7406H357.023V76.8071Z" fill="white"/>
<path d="M447.332 49.0583H432.14V36.5408H447.332V49.0583ZM432.14 57.6173H447.332V112.93H432.14V57.6173ZM466.784 94.9559C466.784 96.5964 467.105 98.0229 467.747 99.2354C468.46 100.377 469.352 101.34 470.421 102.124C471.491 102.837 472.704 103.372 474.059 103.729C475.485 104.086 476.948 104.264 478.445 104.264C479.515 104.264 480.621 104.157 481.762 103.943C482.975 103.658 484.044 103.265 484.972 102.766C485.97 102.195 486.79 101.482 487.432 100.626C488.074 99.699 488.395 98.5578 488.395 97.2027C488.395 94.9203 486.862 93.2085 483.795 92.0673C480.799 90.9261 476.591 89.7849 471.17 88.6437C468.959 88.1444 466.784 87.5738 464.644 86.9319C462.576 86.2186 460.721 85.3271 459.081 84.2572C457.44 83.116 456.121 81.7251 455.122 80.0847C454.124 78.3729 453.624 76.3044 453.624 73.8794C453.624 70.3131 454.302 67.3888 455.657 65.1064C457.084 62.824 458.938 61.0409 461.22 59.7571C463.503 58.4019 466.071 57.4747 468.924 56.9754C471.777 56.4048 474.701 56.1195 477.697 56.1195C480.692 56.1195 483.581 56.4048 486.363 56.9754C489.216 57.546 491.748 58.5089 493.959 59.864C496.17 61.2192 497.988 63.038 499.415 65.3204C500.913 67.5315 501.804 70.3488 502.09 73.7724H487.646C487.432 70.8481 486.327 68.8867 484.33 67.8881C482.333 66.8182 479.979 66.2833 477.269 66.2833C476.413 66.2833 475.485 66.3546 474.487 66.4973C473.488 66.5686 472.561 66.7826 471.705 67.1392C470.921 67.4958 470.243 68.0308 469.672 68.744C469.102 69.3859 468.817 70.2775 468.817 71.4187C468.817 72.7739 469.316 73.8794 470.314 74.7353C471.313 75.5912 472.597 76.3044 474.166 76.875C475.806 77.3743 477.661 77.8379 479.729 78.2659C481.798 78.6938 483.902 79.1574 486.042 79.6567C488.253 80.156 490.392 80.7623 492.461 81.4755C494.601 82.1888 496.491 83.1516 498.131 84.3642C499.772 85.5054 501.091 86.9675 502.09 88.7506C503.088 90.4624 503.588 92.6022 503.588 95.1699C503.588 98.8075 502.839 101.874 501.341 104.371C499.914 106.796 498.024 108.757 495.67 110.255C493.317 111.753 490.606 112.787 487.539 113.358C484.544 114 481.477 114.321 478.338 114.321C475.129 114.321 471.991 114 468.924 113.358C465.857 112.716 463.111 111.646 460.686 110.148C458.332 108.65 456.37 106.689 454.801 104.264C453.303 101.767 452.483 98.6648 452.341 94.9559H466.784Z" fill="white"/>
<path d="M238.054 228.149C213.036 228.149 191.737 213.442 191.737 186.734C191.737 156.477 218.276 139.404 246.168 139.404C275.749 139.404 292.653 162.562 292.653 183.523C292.653 211.245 262.902 228.149 238.054 228.149ZM253.774 196.37C253.774 188.763 250.394 159.35 238.899 159.35C233.321 159.35 230.278 164.59 230.616 169.493C231.292 180.142 234.335 206.174 245.999 206.85C252.422 207.188 253.774 201.779 253.774 196.37ZM330.317 215.809L302.087 163.238C297.185 153.941 287.719 159.181 287.719 150.053C287.719 145.827 289.917 139.911 321.696 139.911C327.612 139.911 350.263 139.573 350.263 148.532C350.263 154.11 343.84 155.293 343.84 159.688C343.84 163.576 350.094 176.254 354.32 176.254C360.067 176.254 365.984 161.886 365.984 158.505C365.984 154.279 360.236 152.589 360.236 147.687C360.236 139.235 378.831 139.911 383.902 139.911C388.804 139.911 401.482 139.911 401.482 147.349C401.482 155.462 390.494 151.744 385.592 161.21L357.87 215.133C352.292 225.782 347.728 228.149 343.84 228.149C337.247 228.149 333.021 220.88 330.317 215.809ZM474.874 186.903H438.193C436.334 186.903 433.629 186.396 433.629 189.27C433.629 197.722 444.617 204.821 452.561 204.821C465.239 204.821 471.494 197.215 475.043 197.215C478.593 197.215 481.636 202.455 481.636 205.667C481.636 218.683 457.802 228.149 442.588 228.149C412.161 228.149 396.441 206.174 396.441 184.368C396.441 158.336 418.585 139.404 443.941 139.404C472.677 139.404 485.355 161.548 485.355 174.226C485.355 185.382 480.284 186.903 474.874 186.903ZM442.926 170.676C447.49 170.676 452.9 171.69 452.9 165.605C452.9 159.519 449.181 154.786 442.926 154.786C437.348 154.786 432.784 160.534 432.784 165.943C432.784 172.028 438.531 170.676 442.926 170.676ZM494.084 184.706V174.564C494.084 157.998 483.604 167.295 483.604 156.984C483.604 143.63 523.158 139.911 524.68 139.911C531.103 139.911 531.272 141.601 531.948 147.349C532.118 149.377 531.948 153.265 534.822 153.265C538.879 153.265 541.415 139.911 555.952 139.911C567.277 139.911 574.715 148.363 574.715 159.519C574.715 170.845 565.08 179.804 553.923 179.804C542.936 179.804 539.893 170.169 535.498 170.169C530.765 170.169 531.61 181.494 531.61 184.537C531.61 189.608 532.118 196.708 532.963 203.131C533.977 210.569 546.824 206.005 546.824 216.147C546.824 226.796 531.948 227.642 513.354 227.642C505.579 227.642 482.589 227.98 482.589 216.316C482.589 209.216 490.365 209.216 492.225 203.3C493.577 199.074 494.084 189.439 494.084 184.706ZM602.843 207.695C602.843 219.021 593.715 228.149 582.389 228.149C571.064 228.149 561.936 219.021 561.936 207.695C561.936 196.37 571.064 187.241 582.389 187.241C593.715 187.241 602.843 196.37 602.843 207.695Z" fill="white"/>
</svg>
